# xmcd CD database file
#
# Track frame offsets:
#	150
#	12419
#	26692
#	45915
#	60393
#	74457
#	89464
#	104314
#	117912
#	132641
#	146915
#	162859
#	173177
#	186333
#	199303
#	211340
#
# Disc length: 2955 seconds
#
# Revision: 0
# Processed by: cddbd v1.5.2PL0 Copyright (c) Steve Scherf et al.
# Submitted via: ACXtractor (MTCDDB.DLL V2003.12.21)
#
DISCID=ec0b8910
DTITLE=Bellbird Music - Call of the Bellbird
DYEAR=2005
DGENRE=Country
TTITLE0=Rick and Thel Carey -  Call of the Bellbird
TTITLE1=Slim Newton  - The Fate of the Redback
TTITLE2=Rex Dallas - Born to the Saddle
TTITLE3=Rocky Page - A Link with Home
TTITLE4=Jean Stafford - Hello Love
TTITLE5=Norm Bodkin and Kenny Kitching -  Fraulein
TTITLE6=Athol McCoy - Mustering Woolies
TTITLE7=Shirley Thoms - Where the golden Wattle Blooms
TTITLE8=Dusty Rankin - Tell me Tonight that You Love Me
TTITLE9=Singing Kettles - Nobody's Child
TTITLE10=Geoff Brown - A Thousand Miles from Anywhere
TTITLE11=Eddie Tapp - Star of Love
TTITLE12=Budy Bishop - Farm Yard Yodel
TTITLE13=Bryan Watkins - Slim Dusty I Salute You
TTITLE14=Stan Wood - The Long Road to the River
TTITLE15=Gordon Parsons - The Pub with no Beer
EXTD=ID3G:   2 YEAR: 2005
EXTT0=
EXTT1=
EXTT2=
EXTT3=
EXTT4=
EXTT5=
EXTT6=
EXTT7=
EXTT8=
EXTT9=
EXTT10=
EXTT11=
EXTT12=
EXTT13=
EXTT14=
EXTT15=
PLAYORDER=
